<svg
  xmlns="http://www.w3.org/2000/svg"
  width="1024"
  height="1024"
  viewBox="0 0 1024 1024"
>
  <rect width="1024" height="1024" fill="#2a1f2d"/>

  <g transform="translate(0,1024) scale(0.1,-0.1)">
    <path
      d="m7126 7495 c121 -435 195 -957 195 -1380 1 -505 -80 -900 -252 -1236 -75 -144 -160 -258 -280 -375 -205 -197 -442 -315 -771 -383 l-132 -27 35 -21 c49 -31 178 -81 263 -103 142 -36 377 -47 524 -24 17 3 32 1 32 -4 0 -20 -140 -193 -235 -291 -237 -245 -517 -420 -838 -526 -403 -133 -820 -139 -1357 -20 -300 66 -465 59 -583 -25 -102 -74 -168 -184 -257 -430 -29 -80 -63 -163 -76 -186 -30 -54 -96 -90 -146 -80 -53 10 -73 38 -72 100 2 112 284 733 489 1076 465 777 974 1316 1700 1800 394 263 679 521 884 800 114 154 110 160 -19 26 -245 -253 -492 -426 -1092 -766 -705 -399 -1282 -959 -1754 -1703 -54 -86 -103 -157 -107 -157 -10 0 -115 221 -167 350 -143 359 -198 650 -187 989 10 310 68 544 204 816 126 251 309 480 532 665 92 76 205 160 214 160 2 0 1 -19 -4 -42 -4 -24 -8 -104 -9 -179 0 -112 4 -153 24 -231 25 -98 63 -198 76 -198 4 0 12 19 19 43 23 77 118 261 182 352 84 118 234 268 334 334 212 139 425 213 770 266 418 64 671 135 931 261 320 155 593 386 779 658 l40 58 33 -103 c19 -57 54 -176 78 -264z"
      fill="#56e39f"
    />
  </g>
</svg>